#!OML:ASF I:\golf\golf\golf 2\Subject 1\2002-09-07\Subject1.ASF
:FULLY-SPECIFIED
:DEGREES
214
root -3.19776 17.2419 -3.24755 59.9443 42.7506 7.83419
lowerback 36.6322 6.27065 5.43361
upperback 15.7345 10.5987 11.202
thorax -2.11074 4.96865 5.34915
lowerneck -13.8651 -10.1713 -0.766628
upperneck 1.59554 -13.4459 -2.99471
head 2.73373 -6.87982 -1.71924
rclavicle -1.33583e-013 -2.8625e-014
rhumerus 60.6684 -21.3784 -58.7333
rradius 26.948
rwrist -17.6888
rhand -41.3011 21.6824
rfingers 7.12502
rthumb -14.2218 -7.81072
lclavicle -1.33583e-013 -2.8625e-014
lhumerus -17.2488 -25.8668 93.4953
lradius 78.9912
lwrist 18.2818
lhand -11.9163 26.0633
lfingers 7.12502
lthumb 14.1376 55.5623
rfemur -87.4815 -5.57454 25.7274
rtibia 41.8472
rfoot -5.16185 0.882228
rtoes 18.608
lfemur -58.9429 -1.38472 -9.53627
ltibia 26.7962
lfoot -17.0151 -11.7382
ltoes -8.60943
215
root -3.18331 17.2283 -3.21318 60.2226 42.8784 8.11812
lowerback 37.1459 6.09618 5.87378
upperback 15.7465 10.5614 11.1424
thorax -2.17019 4.95784 5.05247
lowerneck -13.5934 -10.2196 -0.5881
upperneck 0.996923 -13.5766 -2.98558
head 2.46267 -6.94671 -1.70147
rclavicle -1.59028e-014 1.59028e-015
rhumerus 60.924 -21.6016 -58.2326
rradius 26.9591
rwrist -18.0606
rhand -41.383 21.2108
rfingers 7.12502
rthumb -14.3007 -8.2767
lclavicle -1.59028e-014 1.59028e-015
lhumerus -17.1789 -26.0234 93.4541
lradius 79.1931
lwrist 18.5639
lhand -11.9337 26.1115
lfingers 7.12502
lthumb 14.1209 55.6117
rfemur -87.6211 -5.88823 25.9234
rtibia 41.983
rfoot -5.18859 1.03795
rtoes 20.7146
lfemur -59.0646 -1.73018 -9.4139
ltibia 26.9615
lfoot -17.2562 -11.3907
ltoes -9.87667
216
root -3.18587 17.2115 -3.16412 60.6713 42.7098 8.07147
lowerback 37.0672 6.3216 5.62801
upperback 15.8138 10.7305 11.1573
thorax -2.12973 5.02502 5.13875
lowerneck -13.3801 -10.2407 -0.460368
upperneck 0.497804 -13.6556 -2.97366
head 2.24351 -6.98776 -1.68107
rclavicle -5.725e-014 -1.59028e-015
rhumerus 61.3126 -21.855 -57.8445
rradius 26.7673
rwrist -17.8798
rhand -41.4591 20.8752
rfingers 7.12502
rthumb -14.374 -8.60718
lclavicle -5.725e-014 -1.59028e-015
lhumerus -17.0603 -26.1526 93.3613
lradius 79.3876
lwrist 18.9438
lhand -11.9324 26.192
lfingers 7.12502
lthumb 14.1222 55.6921
rfemur -88.1155 -5.65182 25.9918
rtibia 42.1205
rfoot -5.29718 1.10018
rtoes 20.9308
lfemur -59.5044 -1.35402 -9.54476
ltibia 27.1213
lfoot -17.2827 -11.6314
ltoes -9.21359
217
root -3.17686 17.1942 -3.13245 61.2792 42.6841 8.35803
lowerback 37.1737 6.28246 5.71781
upperback 15.7823 10.7174 11.1363
thorax -2.17698 5.01702 5.06789
lowerneck -13.1471 -10.2969 -0.463809
upperneck 0.132208 -13.7515 -3.02505
head 2.07195 -7.03775 -1.66631
rclavicle 6.67916e-014 -1.74931e-014
rhumerus 61.7819 -22.1401 -57.6636
rradius 26.3476
rwrist -16.6977
rhand -41.8666 20.8293
rfingers 7.12502
rthumb -14.7666 -8.62463
lclavicle 6.67916e-014 -1.74931e-014
lhumerus -17.0431 -26.2142 93.3771
lradius 79.5613
lwrist 19.1955
lhand -11.8532 26.1066
lfingers 7.12502
lthumb 14.1984 55.6013
rfemur -88.614 -5.80883 26.152
rtibia 42.3006
rfoot -5.44165 1.23993
rtoes 18.295
lfemur -59.9678 -1.45523 -9.59766
ltibia 27.2402
lfoot -17.3025 -11.617
ltoes -9.2497
218
root -3.16833 17.1895 -3.09597 61.6298 42.7288 8.55286
lowerback 37.482 6.21586 5.84335
upperback 15.7685 10.7031 11.1307
thorax -2.26724 5.00589 4.98338
lowerneck -12.8125 -10.3823 -0.460602
upperneck -0.325569 -13.8945 -3.08586
head 1.85032 -7.11041 -1.64556
rclavicle -1.17681e-013 -3.02153e-014
rhumerus 62.198 -22.3043 -57.6033
rradius 25.9916
rwrist -15.4754
rhand -42.2977 20.6598
rfingers 7.12502
rthumb -15.182 -8.7632
lclavicle -1.17681e-013 -3.02153e-014
lhumerus -17.1375 -26.2483 93.3994
lradius 79.8373
lwrist 19.1701
lhand -11.9918 26.3141
lfingers 7.12502
lthumb 14.0649 55.8181
rfemur -88.8694 -5.95524 26.3781
rtibia 42.4717
rfoot -5.54518 1.33857
rtoes 16.989
lfemur -60.1648 -1.62791 -9.48057
ltibia 27.3144
lfoot -17.3209 -11.4279
ltoes -10.2687
219
root -3.16634 17.1893 -3.05797 61.8242 42.8701 8.55263
lowerback 37.7685 6.19439 6.01244
upperback 15.7867 10.7559 11.1697
thorax -2.32073 5.02647 4.90501
lowerneck -12.577 -10.4186 -0.504901
upperneck -0.711748 -13.9647 -2.95579
head 1.69054 -7.14206 -1.56644
rclavicle 3.18055e-015 7.95139e-015
rhumerus 62.6518 -22.4945 -57.6978
rradius 25.7318
rwrist -14.651
rhand -42.3404 20.5126
rfingers 7.12502
rthumb -15.223 -8.90729
lclavicle 3.18055e-015 7.95139e-015
lhumerus -17.1316 -26.2628 93.3659
lradius 80.066
lwrist 19.3406
lhand -12.1156 26.3452
lfingers 7.12502
lthumb 13.9456 55.8575
rfemur -89.0922 -6.00832 26.7605
rtibia 42.6279
rfoot -5.65864 1.50413
rtoes 17.7064
lfemur -60.2873 -1.72198 -9.14577
ltibia 27.3347
lfoot -17.2232 -11.3158
ltoes -10.4062
220
root -3.16399 17.1907 -3.02531 61.9654 43.127 8.51326
lowerback 38.0149 6.13247 6.33871
upperback 15.8223 10.8109 11.2392
thorax -2.3186 5.05447 4.78696
lowerneck -12.5425 -10.4099 -0.610818
upperneck -0.745064 -13.9445 -2.78388
head 1.69368 -7.12772 -1.49331
rclavicle -2.54444e-014 4.6118e-014
rhumerus 63.0021 -22.6885 -57.6084
rradius 25.5658
rwrist -14.2459
rhand -42.4255 20.7553
rfingers 7.12502
rthumb -15.305 -8.65833
lclavicle -2.54444e-014 4.6118e-014
lhumerus -16.9941 -26.2617 93.3585
lradius 80.1072
lwrist 19.5914
lhand -12.0777 26.187
lfingers 7.12502
lthumb 13.9821 55.6968
rfemur -89.2733 -6.1055 27.2801
rtibia 42.7521
rfoot -5.75873 1.72065
rtoes 17.835
lfemur -60.3968 -1.67645 -8.87336
ltibia 27.3064
lfoot -17.0221 -11.5396
ltoes -9.49716
221
root -3.15481 17.1814 -2.99909 62.3358 43.25 8.67058
lowerback 38.1477 6.06872 6.61435
upperback 15.812 10.8346 11.2478
thorax -2.32347 5.06972 4.64607
lowerneck -12.4557 -10.4127 -0.613523
upperneck -0.859155 -13.9575 -2.73878
head 1.64364 -7.13332 -1.46811
rclavicle -1.08139e-013 -4.92986e-014
rhumerus 63.1651 -22.9056 -57.2366
rradius 25.4689
rwrist -14.2146
rhand -42.5526 20.9183
rfingers 7.12502
rthumb -15.4275 -8.48598
lclavicle -1.08139e-013 -4.92986e-014
lhumerus -16.9413 -26.3907 93.4097
lradius 80.1878
lwrist 19.6828
lhand -12.0402 26.3626
lfingers 7.12502
lthumb 14.0182 55.8699
rfemur -89.5454 -6.19149 27.382
rtibia 42.8634
rfoot -5.85008 1.70087
rtoes 17.6715
lfemur -60.6247 -1.79197 -8.70855
ltibia 27.2689
lfoot -16.8351 -11.6143
ltoes -8.91201
222
root -3.15138 17.1668 -2.96426 62.6896 43.079 8.72664
lowerback 38.3193 6.20256 6.45444
upperback 15.7804 10.9484 11.2228
thorax -2.44371 5.10788 4.64088
lowerneck -12.0902 -10.4419 -0.595853
upperneck -1.32145 -14.032 -2.59304
head 1.43461 -7.16656 -1.3819
rclavicle -6.99722e-014 -6.36111e-015
rhumerus 63.4266 -23.1083 -57.1288
rradius 25.3586
rwrist -14.0435
rhand -42.3626 20.5941
rfingers 7.12502
rthumb -15.2445 -8.82418
lclavicle -6.99722e-014 -6.36111e-015
lhumerus -16.9551 -26.4333 93.3677
lradius 80.3032
lwrist 19.8653
lhand -11.9029 26.3661
lfingers 7.12502
lthumb 14.1506 55.8642
rfemur -89.8342 -6.02704 27.2191
rtibia 42.9395
rfoot -5.95821 1.62173
rtoes 17.8721
lfemur -60.8331 -1.66945 -8.77837
ltibia 27.2574
lfoot -16.8652 -11.6191
ltoes -10.0614
